<svg width="620" height="230" viewBox="0 0 620 230" xmlns="http://www.w3.org/2000/svg">
  <defs>
    <linearGradient id="cardbg13" x1="0" y1="0" x2="1" y2="1">
      <stop offset="0%" stop-color="#0B1B3A"/>
      <stop offset="100%" stop-color="#020617"/>
    </linearGradient>
    <radialGradient id="glow13" cx="85%" cy="10%" r="60%">
      <stop offset="0%" stop-color="#7C3AED" stop-opacity="0.35"/>
      <stop offset="100%" stop-color="#7C3AED" stop-opacity="0"/>
    </radialGradient>
  </defs>
  <rect width="620" height="230" rx="18" fill="url(#cardbg13)"/>
  <rect width="620" height="230" rx="18" fill="url(#glow13)"/>
  <rect width="620" height="230" rx="18" fill="none" stroke="#7C3AED" stroke-opacity="0.45" stroke-width="1.3"/>
  <circle cx="160.6" cy="157.6" r="1.19" fill="#E2E8F0" opacity="0.84"/>
<circle cx="115.1" cy="53.0" r="0.49" fill="#E2E8F0" opacity="0.41"/>
<circle cx="455.1" cy="29.9" r="0.99" fill="#E2E8F0" opacity="0.40"/>
<circle cx="182.7" cy="99.3" r="1.39" fill="#E2E8F0" opacity="0.68"/>
<circle cx="8.9" cy="63.4" r="0.49" fill="#E2E8F0" opacity="0.86"/>
<circle cx="502.0" cy="185.4" r="1.37" fill="#E2E8F0" opacity="0.77"/>
<circle cx="588.6" cy="182.6" r="0.63" fill="#E2E8F0" opacity="0.84"/>
<circle cx="301.8" cy="173.7" r="1.03" fill="#E2E8F0" opacity="0.55"/>
<circle cx="225.8" cy="98.9" r="0.71" fill="#E2E8F0" opacity="0.33"/>
<circle cx="508.2" cy="183.6" r="1.58" fill="#E2E8F0" opacity="0.73"/>
<circle cx="343.6" cy="172.1" r="0.48" fill="#E2E8F0" opacity="0.72"/>
<circle cx="274.9" cy="40.6" r="0.56" fill="#E2E8F0" opacity="0.62"/>
<circle cx="157.1" cy="105.7" r="1.09" fill="#E2E8F0" opacity="0.53"/>
<circle cx="81.1" cy="112.9" r="0.61" fill="#E2E8F0" opacity="0.41"/>
<circle cx="120.6" cy="84.3" r="0.40" fill="#E2E8F0" opacity="0.71"/>
<circle cx="591.3" cy="89.6" r="1.23" fill="#E2E8F0" opacity="0.90"/>
<circle cx="26.8" cy="32.6" r="1.35" fill="#E2E8F0" opacity="0.84"/>
<circle cx="396.2" cy="36.7" r="0.84" fill="#E2E8F0" opacity="0.86"/>
<circle cx="549.4" cy="184.7" r="0.56" fill="#E2E8F0" opacity="0.85"/>
<circle cx="232.3" cy="164.8" r="0.48" fill="#E2E8F0" opacity="0.93"/>
<circle cx="374.2" cy="166.2" r="0.58" fill="#E2E8F0" opacity="0.68"/>
<circle cx="360.1" cy="136.0" r="0.77" fill="#E2E8F0" opacity="0.76"/>
<circle cx="211.6" cy="67.9" r="0.51" fill="#E2E8F0" opacity="0.73"/>
<circle cx="69.6" cy="51.9" r="0.39" fill="#E2E8F0" opacity="0.70"/>
<circle cx="344.8" cy="125.0" r="0.35" fill="#E2E8F0" opacity="0.56"/>
<circle cx="212.7" cy="21.3" r="0.30" fill="#E2E8F0" opacity="0.95"/>
<circle cx="75.3" cy="69.3" r="0.65" fill="#E2E8F0" opacity="0.67"/>
<circle cx="48.0" cy="108.1" r="0.78" fill="#E2E8F0" opacity="0.83"/>
<circle cx="3.5" cy="77.0" r="0.95" fill="#E2E8F0" opacity="0.93"/>
<circle cx="320.3" cy="109.1" r="1.17" fill="#E2E8F0" opacity="0.46"/>
<circle cx="19.7" cy="115.3" r="1.48" fill="#E2E8F0" opacity="0.77"/>
<circle cx="160.2" cy="157.3" r="1.40" fill="#E2E8F0" opacity="0.43"/>
<circle cx="364.6" cy="81.8" r="0.62" fill="#E2E8F0" opacity="0.45"/>
<circle cx="126.4" cy="80.7" r="0.35" fill="#E2E8F0" opacity="0.53"/>
<circle cx="53.8" cy="174.4" r="1.08" fill="#E2E8F0" opacity="0.25"/>
<circle cx="479.8" cy="43.8" r="0.92" fill="#E2E8F0" opacity="0.64"/>
<circle cx="206.4" cy="66.6" r="0.87" fill="#E2E8F0" opacity="0.35"/>
<circle cx="535.4" cy="25.7" r="1.37" fill="#E2E8F0" opacity="0.40"/>
<circle cx="188.1" cy="89.3" r="0.34" fill="#E2E8F0" opacity="0.34"/>
<circle cx="223.8" cy="101.6" r="1.44" fill="#E2E8F0" opacity="0.94"/>
<circle cx="27.0" cy="123.1" r="0.47" fill="#E2E8F0" opacity="0.81"/>
<circle cx="200.1" cy="205.4" r="1.01" fill="#E2E8F0" opacity="0.34"/>
<circle cx="3.1" cy="57.1" r="1.43" fill="#E2E8F0" opacity="0.35"/>
<circle cx="296.9" cy="85.5" r="0.75" fill="#E2E8F0" opacity="0.81"/>
<circle cx="132.5" cy="165.2" r="1.17" fill="#E2E8F0" opacity="0.90"/>
  <text x="32" y="52" font-family="Segoe UI, Verdana, sans-serif" font-size="24" font-weight="700" fill="#E2E8F0">🦾  AI-Driven Prosthetic Hand System</text>
  <text x="32" y="90" font-family="Segoe UI, Verdana, sans-serif" font-size="14" fill="#94A3B8">EMG-signal-driven prosthetic hand control — XGBoost predicts 14</text>
<text x="32" y="112" font-family="Segoe UI, Verdana, sans-serif" font-size="14" fill="#94A3B8">joint angles, rendered live in Blender 3D.</text>

  <rect x="32" y="176" width="59" height="26" rx="13" fill="#0B1B3A" stroke="#7C3AED" stroke-opacity="0.6"/>
<text x="62" y="193" font-family="Segoe UI, Verdana, sans-serif" font-size="11.5" fill="#EC4899" text-anchor="middle">Python</text><rect x="101" y="176" width="66" height="26" rx="13" fill="#0B1B3A" stroke="#7C3AED" stroke-opacity="0.6"/>
<text x="134" y="193" font-family="Segoe UI, Verdana, sans-serif" font-size="11.5" fill="#EC4899" text-anchor="middle">XGBoost</text><rect x="178" y="176" width="95" height="26" rx="13" fill="#0B1B3A" stroke="#7C3AED" stroke-opacity="0.6"/>
<text x="225" y="193" font-family="Segoe UI, Verdana, sans-serif" font-size="11.5" fill="#EC4899" text-anchor="middle">Blender API</text><rect x="283" y="176" width="66" height="26" rx="13" fill="#0B1B3A" stroke="#7C3AED" stroke-opacity="0.6"/>
<text x="316" y="193" font-family="Segoe UI, Verdana, sans-serif" font-size="11.5" fill="#EC4899" text-anchor="middle">Sockets</text>
</svg>
